# xmcd CD database file
#
# Track frame offsets:
#	150
#	17195
#	33652
#	57555
#	85667
#	116225
#	125472
#	154370
#
# Disc length: 2515 seconds
#
# Revision: 0
# Processed by: cddbd v1.5.2PL0 Copyright (c) Steve Scherf et al.
# Submitted via: CDex 1.51
#
DISCID=6d09d108
DTITLE=Sorgen Rust Windbiel Trio - Outlet
DYEAR=1983
DGENRE=Jazz
TTITLE0=Undefined and realigned
TTITLE1=The road must roll 
TTITLE2=Trilo X
TTITLE3=Trilo why
TTITLE4=The starfare's Gem
TTITLE5=Unstuck
TTITLE6=Object/Subject
TTITLE7=Augury
EXTD=YEAR: 1983
EXTT0=
EXTT1=
EXTT2=
EXTT3=
EXTT4=
EXTT5=
EXTT6=
EXTT7=
PLAYORDER=
